{
	"asset":{
		"generator":"Khronos glTF Blender I/O v5.0.21",
		"version":"2.0"
	},
	"scene":0,
	"scenes":[
		{
			"name":"Scene",
			"nodes":[
				0
			]
		}
	],
	"nodes":[
		{
			"mesh":0,
			"name":"Mesh_0",
			"scale":[
				2.452744722366333,
				2.452744722366333,
				2.452744722366333
			]
		}
	],
	"materials":[
		{
			"doubleSided":true,
			"name":"Material_0",
			"normalTexture":{
				"index":0
			},
			"pbrMetallicRoughness":{
				"baseColorTexture":{
					"index":1
				},
				"metallicRoughnessTexture":{
					"index":2
				}
			}
		}
	],
	"meshes":[
		{
			"name":"Mesh_0",
			"primitives":[
				{
					"attributes":{
						"POSITION":0,
						"NORMAL":1,
						"TEXCOORD_0":2
					},
					"indices":3,
					"material":0
				}
			]
		}
	],
	"textures":[
		{
			"sampler":0,
			"source":0
		},
		{
			"sampler":0,
			"source":1
		},
		{
			"sampler":0,
			"source":2
		}
	],
	"images":[
		{
			"mimeType":"image/jpeg",
			"name":"Image_2",
			"uri":"Image_2.jpg"
		},
		{
			"mimeType":"image/jpeg",
			"name":"Image_0",
			"uri":"Image_0.jpg"
		},
		{
			"mimeType":"image/jpeg",
			"name":"Image_1",
			"uri":"Image_1.jpg"
		}
	],
	"accessors":[
		{
			"bufferView":0,
			"componentType":5126,
			"count":433842,
			"max":[
				0.6809560060501099,
				0.951524019241333,
				0.6123510003089905
			],
			"min":[
				-0.6807500123977661,
				-0.9518219828605652,
				-0.6162329912185669
			],
			"type":"VEC3"
		},
		{
			"bufferView":1,
			"componentType":5126,
			"count":433842,
			"type":"VEC3"
		},
		{
			"bufferView":2,
			"componentType":5126,
			"count":433842,
			"type":"VEC2"
		},
		{
			"bufferView":3,
			"componentType":5125,
			"count":1942392,
			"type":"SCALAR"
		}
	],
	"bufferViews":[
		{
			"buffer":0,
			"byteLength":5206104,
			"byteOffset":0,
			"target":34962
		},
		{
			"buffer":0,
			"byteLength":5206104,
			"byteOffset":5206104,
			"target":34962
		},
		{
			"buffer":0,
			"byteLength":3470736,
			"byteOffset":10412208,
			"target":34962
		},
		{
			"buffer":0,
			"byteLength":7769568,
			"byteOffset":13882944,
			"target":34963
		}
	],
	"samplers":[
		{
			"magFilter":9729,
			"minFilter":9987
		}
	],
	"buffers":[
		{
			"byteLength":21652512,
			"uri":"Untitled.bin"
		}
	]
}
